<?xml version="1.0" encoding="UTF-8" standalone="no"?>
<svg
   id="visual"
   viewBox="0 0 960 540"
   width="960"
   height="540"
   version="1.1"
   sodipodi:docname="layered-steps-haikei.svg"
   inkscape:version="1.3.2 (091e20e, 2023-11-25, custom)"
   xmlns:inkscape="http://www.inkscape.org/namespaces/inkscape"
   xmlns:sodipodi="http://sodipodi.sourceforge.net/DTD/sodipodi-0.dtd"
   xmlns="http://www.w3.org/2000/svg"
   xmlns:svg="http://www.w3.org/2000/svg">
  <defs
     id="defs5" />
  <sodipodi:namedview
     id="namedview5"
     pagecolor="#ffffff"
     bordercolor="#000000"
     borderopacity="0.25"
     inkscape:showpageshadow="2"
     inkscape:pageopacity="0.0"
     inkscape:pagecheckerboard="0"
     inkscape:deskcolor="#d1d1d1"
     showgrid="false"
     inkscape:zoom="1.5388889"
     inkscape:cx="480.21661"
     inkscape:cy="270"
     inkscape:window-width="1920"
     inkscape:window-height="1027"
     inkscape:window-x="-8"
     inkscape:window-y="-8"
     inkscape:window-maximized="1"
     inkscape:current-layer="visual" />
  <rect
     x="-960"
     y="-541"
     width="960"
     height="540"
     fill="#00948b"
     id="rect1"
     transform="scale(-1)" />
  <path
     d="M 960,308 H 720 V 248 H 480 v 65 H 240 v 1 H 0 V 369 0 0 h 240 v 0 h 240 v 0 h 240 v 0 h 240 z"
     fill="#de2862"
     id="path1" />
  <path
     d="M 960,321 H 720 V 167 H 480 V 328 H 240 V 154 H 0 V 227 0 0 h 240 v 0 h 240 v 0 h 240 v 0 h 240 z"
     fill="#c85129"
     id="path2" />
  <path
     d="M 960,109 H 720 v 57 H 480 v 55 H 240 v 61 H 0 V 166 0 0 h 240 v 0 h 240 v 0 h 240 v 0 h 240 z"
     fill="#9d7000"
     id="path3" />
  <path
     d="M 960,146 H 720 V 95 H 480 v 1 H 240 V 88 H 0 V 156 0 0 h 240 v 0 h 240 v 0 h 240 v 0 h 240 z"
     fill="#688317"
     id="path4" />
  <path
     d="M 960,61 H 720 V 28 H 480 V 52 H 240 V 86 H 0 V 135 0 0 h 240 v 0 h 240 v 0 h 240 v 0 h 240 z"
     fill="#008d4d"
     id="path5" />
</svg>
